<mxfile host="app.diagrams.net" modified="2024-03-25T08:16:01.200Z" agent="Mozilla/5.0 (Windows NT 10.0; Win64; x64; rv:124.0) Gecko/20100101 Firefox/124.0" version="24.1.0" etag="VRHIp775xkgwqWtawoxY" type="github">
  <diagram name="Seite-1" id="1pF7XqFZZR7G5ejMD8VG">
    <mxGraphModel>
      <root>
        <mxCell id="0" />
        <mxCell id="1" parent="0" />
      </root>
    </mxGraphModel>
  </diagram>
</mxfile>
